<svg width="531" height="135" viewBox="0 0 531 135" fill="none" xmlns="http://www.w3.org/2000/svg">
<rect width="531" height="135" fill="white"/>
<path d="M47.9 105.8C42.8333 105.8 38.3333 104.9 34.4 103.1C30.5333 101.3 27.5 98.4667 25.3 94.6C23.1667 90.6667 22.1 85.5 22.1 79.1V44.6C22.1 42.0667 20.8 40.4 18.2 39.6L16 39V38H43.7V39L40.8 39.8C38.3333 40.4 37.1 42.0667 37.1 44.8V81.7C37.1 87.9 38.4 92.5 41 95.5C43.6 98.4333 47.3333 99.9 52.2 99.9C57.2667 99.9 61.2667 98.3333 64.2 95.2C67.2 92.0667 68.7 87.6333 68.7 81.9V45.2C68.7 43.8667 68.4667 42.7 68 41.7C67.6 40.6333 66.7333 39.9333 65.4 39.6L62.9 39V38H76.9V39L74.2 39.7C72.9333 39.9667 72.1 40.6 71.7 41.6C71.3 42.6 71.1 43.7667 71.1 45.1V81.7C71.1 86.5667 70.1333 90.8333 68.2 94.5C66.2667 98.1 63.5667 100.9 60.1 102.9C56.6333 104.833 52.5667 105.8 47.9 105.8ZM79.4813 104V103L81.5813 102.2C83.7146 101.333 84.7813 99.6333 84.7813 97.1V44.9C84.7813 42.2333 83.7146 40.5333 81.5813 39.8L79.4813 39V38H105.881C112.948 38 119.015 39.3333 124.081 42C129.215 44.6 133.148 48.3667 135.881 53.3C138.681 58.1667 140.081 64.0333 140.081 70.9C140.081 77.9 138.581 83.8667 135.581 88.8C132.581 93.7333 128.381 97.5 122.981 100.1C117.648 102.7 111.348 104 104.081 104H79.4813ZM99.7813 102H104.081C108.881 102 112.748 101.067 115.681 99.2C118.615 97.2667 120.748 94.0667 122.081 89.6C123.481 85.0667 124.181 78.8667 124.181 71C124.181 63.1333 123.481 56.9667 122.081 52.5C120.748 47.9667 118.648 44.7667 115.781 42.9C112.915 40.9667 109.148 40 104.481 40H99.7813V102Z" fill="#2196F3"/>
<path d="M178.725 105.8C172.258 105.8 166.392 104.5 161.125 101.9C155.925 99.2333 151.792 95.3 148.725 90.1C145.658 84.9 144.125 78.5333 144.125 71C144.125 65.2667 145.058 60.2333 146.925 55.9C148.792 51.5667 151.325 47.9333 154.525 45C157.792 42.0667 161.525 39.8667 165.725 38.4C169.992 36.9333 174.492 36.2 179.225 36.2C183.025 36.2 186.525 36.6333 189.725 37.5C192.925 38.3667 195.925 39.5667 198.725 41.1L199.125 53.4H198.125L193.125 45.4C192.458 44.1333 191.725 43 190.925 42C190.125 40.9333 189.125 40.1333 187.925 39.6C186.925 39.1333 185.925 38.8 184.925 38.6C183.992 38.3333 182.792 38.2 181.325 38.2C177.458 38.2 173.925 39.2333 170.725 41.3C167.592 43.3667 165.058 46.8 163.125 51.6C161.258 56.3333 160.325 62.8333 160.325 71.1C160.325 79.3 161.225 85.8 163.025 90.6C164.825 95.3333 167.258 98.7333 170.325 100.8C173.458 102.8 176.958 103.8 180.825 103.8C182.958 103.8 184.658 103.667 185.925 103.4C187.192 103.067 188.458 102.6 189.725 102C190.992 101.467 191.958 100.7 192.625 99.7C193.292 98.6333 193.892 97.5 194.425 96.3L198.825 86.5H199.825L199.525 100.8C196.725 102.267 193.592 103.467 190.125 104.4C186.658 105.333 182.858 105.8 178.725 105.8ZM229.679 105.5C224.612 105.5 220.212 104.467 216.479 102.4C212.746 100.267 209.846 97.2667 207.779 93.4C205.779 89.5333 204.779 85 204.779 79.8C204.779 74.6 205.846 70.1 207.979 66.3C210.179 62.5 213.146 59.5667 216.879 57.5C220.679 55.4333 224.946 54.4 229.679 54.4C234.412 54.4 238.646 55.4333 242.379 57.5C246.112 59.5 249.046 62.4 251.179 66.2C253.379 70 254.479 74.5333 254.479 79.8C254.479 85.0667 253.446 89.6333 251.379 93.5C249.379 97.3 246.512 100.267 242.779 102.4C239.112 104.467 234.746 105.5 229.679 105.5ZM229.679 103.5C232.012 103.5 233.879 102.833 235.279 101.5C236.679 100.167 237.679 97.8 238.279 94.4C238.946 91 239.279 86.2 239.279 80C239.279 73.7333 238.946 68.9 238.279 65.5C237.679 62.1 236.679 59.7333 235.279 58.4C233.879 57.0667 232.012 56.4 229.679 56.4C227.346 56.4 225.446 57.0667 223.979 58.4C222.579 59.7333 221.546 62.1 220.879 65.5C220.279 68.9 219.979 73.7333 219.979 80C219.979 86.2 220.279 91 220.879 94.4C221.546 97.8 222.579 100.167 223.979 101.5C225.446 102.833 227.346 103.5 229.679 103.5ZM258.871 104V103L260.271 102.6C262.604 101.933 263.771 100.3 263.771 97.7V66.4C263.771 64.9333 263.538 63.8667 263.071 63.2C262.604 62.4667 261.704 61.9667 260.371 61.7L258.871 61.3V60.3L275.971 54.5L276.971 55.5L277.771 61.5C280.104 59.4333 282.738 57.7333 285.671 56.4C288.604 55.0667 291.504 54.4 294.371 54.4C298.771 54.4 302.138 55.6 304.471 58C306.871 60.4 308.071 64.0667 308.071 69V97.8C308.071 100.4 309.338 102.033 311.871 102.7L312.771 103V104H289.171V103L290.471 102.6C292.804 101.867 293.971 100.233 293.971 97.7V65.8C293.971 61.5333 291.838 59.4 287.571 59.4C284.638 59.4 281.438 60.8667 277.971 63.8V97.8C277.971 100.4 279.138 102.033 281.471 102.7L282.371 103V104H258.871ZM341.484 105.5C336.95 105.5 332.817 104.533 329.084 102.6C325.417 100.6 322.484 97.7333 320.284 94C318.15 90.2 317.084 85.5667 317.084 80.1C317.084 74.7 318.25 70.1 320.584 66.3C322.984 62.4333 326.15 59.5 330.084 57.5C334.084 55.4333 338.45 54.4 343.184 54.4C347.05 54.4 350.317 55.0333 352.984 56.3C355.65 57.5667 357.684 59.2333 359.084 61.3C360.484 63.3 361.184 65.4 361.184 67.6C361.184 69.4667 360.617 70.9333 359.484 72C358.35 73 356.884 73.5 355.084 73.5C353.15 73.5 351.584 72.8 350.384 71.4C349.184 70 348.484 68.1667 348.284 65.9C348.217 64.4333 348.25 63.2 348.384 62.2C348.517 61.1333 348.517 60.0667 348.384 59C348.117 57.8667 347.684 57.1333 347.084 56.8C346.55 56.4 345.784 56.2 344.784 56.2C340.717 56.2 337.55 57.9667 335.284 61.5C333.084 65.0333 331.984 70.6667 331.984 78.4C331.984 85.1333 333.217 90.3 335.684 93.9C338.217 97.4333 342.084 99.2 347.284 99.2C350.417 99.2 352.95 98.6333 354.884 97.5C356.817 96.3667 358.684 94.6667 360.484 92.4L361.484 93.2C359.817 97.1333 357.25 100.167 353.784 102.3C350.317 104.433 346.217 105.5 341.484 105.5ZM390.812 105.5C385.745 105.5 381.345 104.467 377.612 102.4C373.878 100.267 370.978 97.2667 368.912 93.4C366.912 89.5333 365.912 85 365.912 79.8C365.912 74.6 366.978 70.1 369.112 66.3C371.312 62.5 374.278 59.5667 378.012 57.5C381.812 55.4333 386.078 54.4 390.812 54.4C395.545 54.4 399.778 55.4333 403.512 57.5C407.245 59.5 410.178 62.4 412.312 66.2C414.512 70 415.612 74.5333 415.612 79.8C415.612 85.0667 414.578 89.6333 412.512 93.5C410.512 97.3 407.645 100.267 403.912 102.4C400.245 104.467 395.878 105.5 390.812 105.5ZM390.812 103.5C393.145 103.5 395.012 102.833 396.412 101.5C397.812 100.167 398.812 97.8 399.412 94.4C400.078 91 400.412 86.2 400.412 80C400.412 73.7333 400.078 68.9 399.412 65.5C398.812 62.1 397.812 59.7333 396.412 58.4C395.012 57.0667 393.145 56.4 390.812 56.4C388.478 56.4 386.578 57.0667 385.112 58.4C383.712 59.7333 382.678 62.1 382.012 65.5C381.412 68.9 381.112 73.7333 381.112 80C381.112 86.2 381.412 91 382.012 94.4C382.678 97.8 383.712 100.167 385.112 101.5C386.578 102.833 388.478 103.5 390.812 103.5ZM420.004 104V103L421.504 102.6C422.837 102.2 423.737 101.6 424.204 100.8C424.737 100 425.004 98.9667 425.004 97.7V66.4C425.004 64.9333 424.737 63.8667 424.204 63.2C423.737 62.4667 422.837 61.9667 421.504 61.7L420.004 61.3V60.3L437.204 54.5L438.204 55.5L439.104 64.1V64.9C440.037 63.0333 441.237 61.3333 442.704 59.8C444.237 58.2 445.904 56.9 447.704 55.9C449.571 54.9 451.404 54.4 453.204 54.4C455.737 54.4 457.671 55.1 459.004 56.5C460.337 57.9 461.004 59.6667 461.004 61.8C461.004 64.0667 460.337 65.8333 459.004 67.1C457.737 68.3 456.204 68.9 454.404 68.9C451.604 68.9 449.137 67.5 447.004 64.7L446.804 64.5C446.137 63.5667 445.371 63.0667 444.504 63C443.637 62.8667 442.837 63.2667 442.104 64.2C441.437 64.8 440.871 65.5333 440.404 66.4C440.004 67.2 439.604 68.1333 439.204 69.2V97.1C439.204 99.7667 440.371 101.433 442.704 102.1L445.904 103V104H420.004ZM483.782 105.5C479.849 105.5 476.315 104.633 473.182 102.9C470.049 101.1 467.549 98.3667 465.682 94.7C463.882 90.9667 462.982 86.2 462.982 80.4C462.982 74.5333 464.015 69.7 466.082 65.9C468.149 62.0333 470.882 59.1667 474.282 57.3C477.682 55.3667 481.382 54.4 485.382 54.4C487.715 54.4 489.949 54.6333 492.082 55.1C494.215 55.5667 496.115 56.2667 497.782 57.2V44.2C497.782 42.8 497.549 41.7667 497.082 41.1C496.682 40.4333 495.782 39.9667 494.382 39.7L492.482 39.3V38.3L510.682 33.9L511.782 34.8L511.382 48.8V97.7C511.382 99.0333 511.615 100.133 512.082 101C512.549 101.8 513.415 102.367 514.682 102.7L515.582 103V104L498.482 105.1L497.582 101.5C495.782 102.7 493.715 103.667 491.382 104.4C489.115 105.133 486.582 105.5 483.782 105.5ZM489.582 101.8C492.382 101.8 494.949 100.967 497.282 99.3V59.6C494.815 58 492.282 57.2 489.682 57.2C486.482 57.2 483.749 59.0667 481.482 62.8C479.215 66.4667 478.082 72.2667 478.082 80.2C478.082 88.1333 479.149 93.7333 481.282 97C483.415 100.2 486.182 101.8 489.582 101.8Z" fill="black"/>
</svg>
